# xmcd
#
# Track frame offsets:
#	150
#	14537
#	32460
#	44800
#	54157
#	66492
#	76295
#	88562
#	98992
#	109235
#	121952
#	132315
#	143460
#	156915
#	166955
#	177695
#
# Disc length: 2570 seconds
#
# Revision: 0
# Processed by: cddbd v1.5.2PL0 Copyright (c) Steve Scherf et al.
# Submitted via: audiograbber 1.83.01
#
DISCID=da0a0810
DTITLE=Various Artist - Country Stars
DYEAR=1996
DGENRE=Country
TTITLE0=The Ballamy Brothers - If I Said You Had A Beautiful Body
TTITLE1=Don Williams - I Believe In You
TTITLE2=Charlie Rich - Behind Closed Doors
TTITLE3=George Jones - The Race Is On
TTITLE4=Lynn Anderson - Stand By Your Man
TTITLE5=Faron Young - Hello Walls
TTITLE6=Johnny Cash - I Walk The Line
TTITLE7=Webb Pierce - In The Jailhouse Now
TTITLE8=Dolly Parton - Release Me
TTITLE9=Willie Nelson - Any Old Arms Won't Do
TTITLE10=Waylon Jennings - White Lightning
TTITLE11=Kitty Wells - Heartbreak U.S.A.
TTITLE12=David Houston - Almost Persuaded
TTITLE13=Boxcar Willie - King Of The Road
TTITLE14=Billie Jo Spears - I'm So Lonesome I Could Cry
TTITLE15=John Denver - Thank God I'm A Country Boy
EXTD=
EXTT0=
EXTT1=
EXTT2=
EXTT3=
EXTT4=
EXTT5=
EXTT6=
EXTT7=
EXTT8=
EXTT9=
EXTT10=
EXTT11=
EXTT12=
EXTT13=
EXTT14=
EXTT15=
PLAYORDER=
